<svg xmlns="http://www.w3.org/2000/svg" xmlns:xlink="http://www.w3.org/1999/xlink" width="309" height="309" viewBox="0 0 309 309"><defs><linearGradient id="linear-gradient" x1=".404" x2=".425" y2="1" gradientUnits="objectBoundingBox"><stop offset="0" stop-color="#f761a1"/><stop offset="1" stop-color="#b227d8"/></linearGradient></defs><g id="Groupe_4884" data-name="Groupe 4884" transform="translate(-637 -560)"><rect id="Rectangle_30" width="309" height="309" fill="url(#linear-gradient)" data-name="Rectangle 30" rx="63" transform="translate(637 560)"/><path id="Tracé_6783" fill="#575757" d="M872.9,459.472l81.408,39.61,87.031-65.5-35.034,82.521,90,32-95.155,16.38,28.32,82.159-89.963-60.572-116.059,5.649,96.63-61.655-50.316-71.931Z" data-name="Tracé 6783" transform="translate(-168.454 205.414)"/><g id="Groupe_4878" data-name="Groupe 4878" transform="translate(803.938 708.3) rotate(59)" style="isolation:isolate"><g id="Groupe_4" data-name="Groupe 4" transform="translate(0 0)"><g id="Groupe_3" data-name="Groupe 3"><path id="Tracé_2" fill="#969696" d="M2.112,39.576a3.955,3.955,0,0,0,1.171-1.108C20.438,14.876,43,1.678,58.151,6.374c.917.283,2.238-.681,2.942-2.152s.525-2.9-.4-3.184C44.128-4.1,19.538,10.21.912,35.827c-.958,1.315-1.2,2.971-.542,3.7A1.334,1.334,0,0,0,2.112,39.576Z" data-name="Tracé 2" transform="translate(0 0)"/></g></g><g id="Groupe_6" data-name="Groupe 6" transform="translate(7.191 18.716)"><g id="Groupe_5" data-name="Groupe 5" transform="translate(0 0)"><path id="Tracé_3" fill="#969696" d="M2.108,31.018A4.2,4.2,0,0,0,3.285,29.91C15.992,12.432,32.691,2.655,43.9,6.128c.923.283,2.238-.681,2.936-2.152s.531-2.9-.392-3.184C33.816-3.125,15.092,7.766.908,27.268c-.952,1.315-1.194,2.965-.542,3.7A1.349,1.349,0,0,0,2.108,31.018Z" data-name="Tracé 3" transform="translate(0 0)"/></g></g><g id="Groupe_8" data-name="Groupe 8" transform="translate(14.446 36.783)"><g id="Groupe_7" data-name="Groupe 7" transform="translate(0 0)"><path id="Tracé_4" fill="#969696" d="M2.109,22.376a4.039,4.039,0,0,0,1.177-1.108c8.214-11.3,19-17.628,26.228-15.39.917.288,2.232-.675,2.936-2.152s.531-2.9-.392-3.184C23.412-2.139,10.6,5.3.91,18.627c-.958,1.315-1.194,2.971-.542,3.7A1.335,1.335,0,0,0,2.109,22.376Z" data-name="Tracé 4" transform="translate(0 0)"/></g></g></g><path id="Union_7" fill="#fff" d="M16.26,31.746l-.024,2.541,29.9,17.2v62.234c-.175.086-.365.154-.531.251a3.9,3.9,0,0,0-2.254,3.09h-.017v4.34h0a3.966,3.966,0,0,0,2.3,3.145c.156.09.335.154.5.235V138.7c-.175.086-.365.156-.531.251a3.9,3.9,0,0,0-2.254,3.09h-.017v4.336l-10.317,6.1a4.528,4.528,0,0,0,.348-.679c.023-.019.051-.039.072-.06l.01-.011c.034-.077.047-.158.077-.237s.056-.163.081-.246c.035-.118.081-.236.107-.355,2.068-1.516,3.115-3.349,3.128-5.19h0v-3.24h-.021a5.609,5.609,0,0,0-.06-.593c0-.03-.017-.058-.021-.088a5.5,5.5,0,0,0-.348-1.088,5.191,5.191,0,0,0,.448-2.015h0v-3.239h-.021a5.1,5.1,0,0,0-.047-.512c-.006-.043-.017-.084-.023-.126a5.481,5.481,0,0,0-.348-1.1,5.218,5.218,0,0,0,.437-1.989h0v-3.239h-.021a5.238,5.238,0,0,0-.062-.6c-.006-.032-.019-.066-.025-.1a5.382,5.382,0,0,0-.341-1.066,5.191,5.191,0,0,0,.448-2.015h0v-3.239h-.021a5.162,5.162,0,0,0-.117-.825l0-.032a5.04,5.04,0,0,0-.141-2.755h0l-1.934-5.993h-.047a6.883,6.883,0,0,0-3.531-4.164c-4.911-2.846-12.848-2.86-17.729-.032-2.162,1.255-3.305,2.86-3.542,4.5l-.055,0-1.87,5.614h0a5.017,5.017,0,0,0-.126,2.728,4.985,4.985,0,0,0-.13.931l-.006-.056c0,.026,0,.054,0,.079H7.583v3.239h0a5.249,5.249,0,0,0,.446,1.91,5.186,5.186,0,0,0-.433,1.85l-.006-.056c0,.026,0,.054,0,.079H7.583V131.7h0a5.236,5.236,0,0,0,.435,1.884,5.233,5.233,0,0,0-.422,1.826l-.006-.056c0,.026,0,.051,0,.077H7.583v3.239h0a5.249,5.249,0,0,0,.446,1.91,5.2,5.2,0,0,0-.433,1.852l-.006-.056c0,.026,0,.051,0,.077H7.583v3.24h0a6.778,6.778,0,0,0,3.124,5.1,4.328,4.328,0,0,0,.139.467c.021.06.038.12.062.18s.038.135.068.2c.021.019.049.038.07.06a6.537,6.537,0,0,0,2.275,2.559v3.348l2.147,1.229v2.334l7.306,4.184,5.581-3.246v-.627l17.778-10.519v36.276a13.568,13.568,0,0,0-3.124,1.253c-2.16,1.255-3.248,2.888-3.307,4.535H39.68v3.541h0c.047,1.672,1.173,3.34,3.38,4.618,4.493,2.606,11.758,2.618,16.223.03,2.211-1.282,3.32-2.961,3.331-4.648h0v-3.541h-.009a4.39,4.39,0,0,0-.785-2.186c-.064-.094-.136-.184-.207-.276a6.675,6.675,0,0,0-.742-.814c-.1-.092-.192-.186-.3-.276a9.345,9.345,0,0,0-1.292-.916c-.019-.011-.032-.026-.051-.037-.111-.064-.243-.107-.356-.169a12.583,12.583,0,0,0-1.422-.672c-.147-.058-.311-.094-.465-.148q-.406-.141-.832-.263V149.793c.177-.083.367-.154.533-.25a3.887,3.887,0,0,0,2.271-3.167h0v-4.34h-.019a2.739,2.739,0,0,0-.077-.428,2.6,2.6,0,0,0-.1-.4,3.686,3.686,0,0,0-.192-.375,3.52,3.52,0,0,0-.26-.443c-.062-.084-.151-.163-.224-.246a5.573,5.573,0,0,0-1.431-1.18c-.156-.09-.335-.156-.5-.236V124.816c.177-.086.367-.156.533-.25a3.887,3.887,0,0,0,2.271-3.167h0v-.6l19.783-11.6,11.438,6.631,16.765-9.72L98.99,94.485,80.22,83.6l-10.91,6.327L61.346,99.11l12.05,6.984L58.036,115.1l-.1-.1c-.107-.111-.2-.227-.32-.334a6.247,6.247,0,0,0-.61-.43c-.121-.084-.217-.171-.35-.251-.156-.09-.335-.154-.5-.236V57.25L80.218,71.086l7.751-4.5.024-2.543-1.875,1.09,1.872-1.09-2.384-1.37V61.5h-.017a1.917,1.917,0,0,0-.066-.379,1.983,1.983,0,0,0-.07-.268,2.637,2.637,0,0,0-.2-.39c-.049-.081-.087-.165-.145-.244a3.543,3.543,0,0,0-.354-.39c-.07-.068-.126-.141-.2-.21a5.268,5.268,0,0,0-.6-.422c-.036-.024-.062-.049-.1-.071V53.548l0,0v-.621a2.032,2.032,0,0,0,.61-1.349h0V47.611h-.015l-.006-.036a1.769,1.769,0,0,0-.056-.332,2.046,2.046,0,0,0-.066-.195,2.254,2.254,0,0,0-.168-.325c-.036-.06-.073-.12-.115-.178-.028-.036-.047-.073-.077-.109l.019-.019,3.651,2.04a10.273,10.273,0,0,0,3.2,5.944,3.54,3.54,0,0,0,1.535.891,3.432,3.432,0,0,0,1.309.011c.03-.006.062-.011.092-.019a6.067,6.067,0,0,0,.652-.2,7.392,7.392,0,0,0-2.51-14.36,6.983,6.983,0,0,0-1.041.075,7.092,7.092,0,0,0-1.058.227,3.42,3.42,0,0,0-.859.484,3.5,3.5,0,0,0-1.186,1.773l-2.894-3.616,2.721-2.88a6.568,6.568,0,0,0,2.574,1.683,5.193,5.193,0,0,0,.58.182l.081.017A3.113,3.113,0,0,0,92,38.653a3.151,3.151,0,0,0,1.363-.792,10.018,10.018,0,0,0,3.084-7.327,6.436,6.436,0,0,0-.31-2.432,3.237,3.237,0,0,0-1.1-1.7,3.067,3.067,0,0,0-.763-.43,6.466,6.466,0,0,0-.943-.2,6.546,6.546,0,0,0-7.25,8.378l-.013-.013-11.5,5.719-8.451.764a6.54,6.54,0,0,0-12.9,1.317,6.2,6.2,0,0,0-3.877-.116L36.192,34.251l-7.944-4.567V24.025h0v-.27A9.7,9.7,0,0,0,29.989,23c1.669-.968,2.505-2.235,2.514-3.507h0V10.123h-.026c0-.049-.021-.1-.026-.148a2.964,2.964,0,0,0,.024-.859L39.81,4.906h0a1.139,1.139,0,0,0,.431-.743l1.015-.6h0a1.018,1.018,0,0,0,.4-.914A3.144,3.144,0,0,0,40.245.191a.987.987,0,0,0-.99-.1h0l-.808.473a1.229,1.229,0,0,0-1.192-.1v0l-6.433,3.7A4.8,4.8,0,0,0,29.078,2.52,11.554,11.554,0,0,0,18.588,2.5a3.84,3.84,0,0,0-2.1,2.663H16.46L15.354,8.49h0a2.969,2.969,0,0,0-.111,1.424c-.006.071-.03.139-.032.21h0c0-.015-.009-.03-.009-.047a.311.311,0,0,0,0,.047h-.011v2.139l-1.687.985A3.854,3.854,0,0,0,12,10.952l.015-.024-.141-.081h0l-.864-.5h0c-1.166-.666-2.77-.565-4.538.46A14.4,14.4,0,0,0,0,22.1c0,2.045.7,3.494,1.832,4.2l0,0,1.006.578.011-.017c1.16.617,2.721.514,4.45-.488A14.491,14.491,0,0,0,13.328,18l1.866-1.09v2.586h0c.037,1.261.887,2.518,2.553,3.484a9.753,9.753,0,0,0,1.7.749v3.349l0-.011v.822l0,.008v.582l0-.009v.822l0,.009v.582l0-.009V29.9l-3.186,1.848m49.7,12.521h8.483v.94h0a2,2,0,0,0,.512,1.212,2,2,0,0,0-.5,1.195h-.011v3.965h0a2.066,2.066,0,0,0,.61,1.319v.623h0V56.6L63.723,50.088,61.171,48.62A6.556,6.556,0,0,0,65.96,44.265Z" data-name="Union 7" transform="translate(713 582)"/></g></svg>